<svg xmlns="http://www.w3.org/2000/svg" viewBox="0 0 360 96" role="img" aria-labelledby="title description">
  <title id="title">NuriPain Ease</title>
  <desc id="description">A green leaf and flowing path beside the NuriPain Ease wordmark.</desc>
  <defs>
    <linearGradient id="leaf" x1="0" y1="0" x2="1" y2="1">
      <stop offset="0" stop-color="#8bae35"/>
      <stop offset="1" stop-color="#0b6b3a"/>
    </linearGradient>
    <linearGradient id="path" x1="0" y1="1" x2="1" y2="0">
      <stop offset="0" stop-color="#d5ae4d"/>
      <stop offset="1" stop-color="#f0d98c"/>
    </linearGradient>
  </defs>
  <g transform="translate(4 6)">
    <circle cx="42" cy="42" r="38" fill="#edf7ef" stroke="#0b6b3a" stroke-width="2"/>
    <path d="M19 58c20-2 33-13 40-34 7 20 2 39-13 48-10 6-21 3-27-14Z" fill="url(#leaf)"/>
    <path d="M24 61c14-8 25-19 34-34" fill="none" stroke="#fffdf8" stroke-linecap="round" stroke-width="3"/>
    <path d="M24 68c13 7 29 7 42-4" fill="none" stroke="url(#path)" stroke-linecap="round" stroke-width="5"/>
    <circle cx="62" cy="22" r="4" fill="#d5ae4d"/>
  </g>
  <text x="96" y="48" fill="#103c27" font-family="Georgia, 'Times New Roman', serif" font-size="36" font-weight="700" letter-spacing="-.8">NuriPain</text>
  <text x="248" y="48" fill="#9b7427" font-family="Georgia, 'Times New Roman', serif" font-size="36" font-weight="400">Ease</text>
  <path d="M98 61h220" stroke="#0b6b3a" stroke-width="1.5" opacity=".25"/>
  <text x="98" y="79" fill="#5b6c63" font-family="Arial, sans-serif" font-size="10" font-weight="700" letter-spacing="3">CARE • COMFORT • HOME</text>
</svg>
